<svg width="220" height="190" viewBox="0 0 220 190" fill="none" xmlns="http://www.w3.org/2000/svg">
<path d="M0 22.0219V174.789C0 179.208 3.58173 182.789 8 182.789H128.129C130.351 182.789 132.473 183.713 133.986 185.34L135.95 187.45C137.463 189.076 139.585 190 141.806 190H212C216.418 190 220 186.418 220 182V74.518C220 70.0997 216.418 66.518 212 66.518H209.097C204.678 66.518 201.097 62.9363 201.097 58.518V8.17254C201.097 3.75728 197.52 0.176808 193.105 0.17254L18.5968 0.0038546C16.0857 0.00142728 13.7191 1.17819 12.2056 3.18187L1.61654 17.1999C0.567537 18.5886 0 20.2815 0 22.0219Z" fill="black"/>
</svg>
