<svg xmlns="http://www.w3.org/2000/svg" preserveAspectRatio="none" viewBox="0 0 1705 919" fill="none">
<path d="M0 124.222V843.688C0 865.779 17.9086 883.688 40 883.688H1007.7C1015.72 883.688 1023.54 886.095 1030.17 890.597L1061.83 912.091C1068.46 916.593 1076.28 919 1084.3 919H1665C1687.09 919 1705 901.091 1705 879V360.255C1705 341.201 1689.55 325.755 1670.5 325.755C1651.45 325.755 1636 310.309 1636 291.255V40C1636 17.9086 1618.09 0 1596 0H106.4C94.1493 0 82.5737 5.61429 74.9887 15.2351L8.58823 99.4573C3.02525 106.513 0 115.237 0 124.222Z" fill="black"/>
</svg>