<svg width="580" height="668" viewBox="0 0 580 668" fill="none" xmlns="http://www.w3.org/2000/svg">
<path d="M0 87.3552V602.332C0 624.424 17.9086 642.332 40 642.332H331.393C341.152 642.332 350.286 647.131 355.824 655.166C361.362 663.201 370.496 668 380.255 668H540C562.091 668 580 650.091 580 628V248.52C580 242.038 574.746 236.784 568.264 236.784C561.782 236.784 556.528 231.529 556.528 225.048V40C556.528 17.9086 538.619 0 516.528 0H57.4725C40.7211 0 25.744 10.438 19.9454 26.1537L2.47292 73.509C0.837248 77.9422 0 82.63 0 87.3552Z" fill="black"/>
</svg>
