<svg viewBox="0 0 640 940" fill="none" xmlns="http://www.w3.org/2000/svg" preserveAspectRatio="none">
<path d="M602 0H82.798C73.9144 0 65.3445 3.28462 58.7367 9.22212L11.9387 51.2725C4.34008 58.1002 0 67.8348 0 78.0504V894C0 907.255 10.7452 918 24 918H211.444C217.28 918 222.917 920.127 227.299 923.983L238.701 934.017C243.083 937.873 248.72 940 254.556 940H616C629.255 940 640 929.255 640 916V245.95C640 242.042 639.046 238.194 637.221 234.739L628.779 218.761C626.954 215.306 626 211.458 626 207.55V24C626 10.7452 615.255 0 602 0Z" fill="black"/>
</svg>