<svg xmlns="http://www.w3.org/2000/svg" width="56" height="78" viewBox="0 0 56 78" fill="none">
  <g clip-path="url(#clip0_19017_4522)">
    <path d="M55.9969 53.933C56.0187 53.3056 55.9264 52.6799 55.7259 52.0946C55.5255 51.5091 55.2211 50.9766 54.8315 50.5296C53.5481 49.1262 51.3225 48.5227 47.3921 48.607C43.3463 48.8062 39.3257 49.4358 35.384 50.4875C32.9063 51.099 30.4635 51.8794 28.0688 52.8243C26.2089 53.526 24.9257 54.0242 23.4317 54.0242H23.3759C22.8972 54.0535 22.4195 53.9468 21.9864 53.714C21.5533 53.4812 21.1785 53.1295 20.8961 52.691C20.6264 52.2063 20.4656 51.6542 20.4277 51.083C20.39 50.5118 20.4763 49.9387 20.6792 49.4139C21.6693 46.3555 22.0484 43.0866 21.7888 39.8426C21.3797 35.3164 19.3897 32.7131 16.3211 32.685C15.8416 32.6518 15.3613 32.7332 14.9116 32.9243C14.4619 33.1154 14.0528 33.4116 13.7111 33.7938C12.589 35.113 12.5704 37.1199 12.651 39.232C12.7192 41.1547 10.8718 43.1126 9.76832 44.2844C7.28857 46.9368 5.37917 50.8103 4.96381 54.1506C4.90183 54.6487 4.85843 55.1048 4.81504 55.5539C4.80639 56.2972 4.66951 57.0314 4.41208 57.7152C3.17489 58.9778 1.87283 60.1563 0.512684 61.2448C0.381077 61.355 0.270043 61.4936 0.185985 61.6526C0.101928 61.8115 0.0465134 61.9878 0.0229362 62.1711C0.0229362 62.3466 -0.479211 66.4796 3.2156 71.7916C5.86272 75.6019 9.64433 77.3211 12.0807 77.3211H12.1675C12.5325 77.3596 12.9004 77.2995 13.2409 77.1458C13.5815 76.992 13.8849 76.7492 14.1264 76.437C14.7464 75.4616 17.1456 72.5144 18.094 71.939C20.4932 70.4724 22.9109 69.1322 25.0869 68.0444C30.2324 67.9322 43.3688 67.8339 46.3445 68.669C46.8432 68.8104 47.3555 68.8812 47.8695 68.8795C50.1075 68.8795 52.4384 67.6094 53.1576 65.0271C53.4039 64.2896 53.5103 63.5016 53.4697 62.7146C53.4291 61.9275 53.2425 61.159 52.922 60.459C52.6857 59.9847 52.3844 59.556 52.0293 59.1888C55.222 57.9819 55.9845 55.7504 55.9969 53.933ZM50.7956 64.1851C50.3617 65.7359 48.4151 66.3603 46.9459 65.9463C44.5033 65.2446 36.9463 65.1464 31.3235 65.1675L31.9063 64.9219C37.2055 62.643 42.7044 61.0104 48.3097 60.0519C49.5496 60.459 50.3803 61.0624 50.746 61.8132C50.8968 62.1838 50.9791 62.5854 50.9876 62.9934C50.9961 63.4012 50.9308 63.8068 50.7956 64.1851ZM49.4565 57.0346C39.4943 58.7608 34.2061 60.9923 31.0445 62.3255L30.1084 62.6483C25.58 64.5714 21.1724 66.8407 16.9161 69.4408C15.4717 70.318 13.0726 73.4196 12.3101 74.4862C11.2996 74.6476 7.72873 73.7284 5.1622 70.0303C2.86224 66.7252 2.50888 64.1359 2.47168 63.0763C3.63716 62.087 5.84413 60.1712 6.38347 59.3854C7.0034 58.438 7.14599 57.2802 7.29477 55.8206C7.33197 55.4276 7.37537 54.9996 7.43116 54.5295C7.77212 51.8208 9.39636 48.5227 11.4793 46.3194C12.7998 44.9159 15.2609 42.3055 15.1369 39.0987C15.0997 38.1163 15.0316 36.2919 15.5089 35.7304C15.5647 35.6674 15.7259 35.4779 16.2963 35.4779C18.0259 35.4779 19.0425 37.0496 19.3153 40.1162C19.5513 42.9323 19.2316 45.7724 18.3792 48.4315C18.0321 49.3796 17.8959 50.4095 17.9824 51.4311C18.0688 52.4527 18.3755 53.4346 18.8752 54.2908C19.3829 55.1015 20.0591 55.7584 20.8439 56.2039C21.6287 56.6492 22.4983 56.8695 23.3759 56.8451C25.3101 56.8451 26.8041 56.2907 28.8747 55.5048C31.1993 54.5824 33.572 53.8232 35.9792 53.2312C39.7575 52.2178 43.6121 51.6116 47.4913 51.4208C50.5043 51.3576 52.3888 51.7296 53.108 52.5366C53.2633 52.7219 53.3805 52.9438 53.4513 53.1864C53.5221 53.4291 53.5445 53.6864 53.5172 53.94C53.5109 54.5014 53.4985 56.3328 49.4565 57.0346Z" fill="#5baccf"/>
    <path d="M11.8805 25.4583C11.9735 25.4583 21.4399 27.0581 25.3455 31.4789C29.2511 35.8997 30.6522 46.6009 30.6522 46.7063C30.6522 47.0784 30.7827 47.4353 31.0153 47.6985C31.2478 47.9617 31.5631 48.1096 31.8921 48.1096C32.2209 48.1096 32.5362 47.9617 32.7687 47.6985C33.0013 47.4353 33.1319 47.0784 33.1319 46.7063C33.1319 46.6009 34.5453 35.8857 38.4509 31.4649C42.3565 27.0441 51.8105 25.4583 51.9035 25.4583C52.2323 25.4583 52.5477 25.3104 52.7802 25.0472C53.0127 24.784 53.1434 24.4271 53.1434 24.0548C53.1434 23.6827 53.0127 23.3256 52.7802 23.0624C52.5477 22.7992 52.2323 22.6513 51.9035 22.6513C51.8105 22.6513 42.3441 21.0515 38.4385 16.6307C34.5329 12.2099 33.1319 1.50869 33.1319 1.40343C33.1319 1.03122 33.0013 0.674249 32.7687 0.411056C32.5362 0.147861 32.2209 0 31.8921 0C31.5631 0 31.2478 0.147861 31.0153 0.411056C30.7827 0.674249 30.6522 1.03122 30.6522 1.40343C30.6522 1.50869 29.2387 12.2239 25.3331 16.6447C21.4275 21.0655 11.9735 22.6513 11.8805 22.6513C11.5517 22.6513 11.2363 22.7992 11.0038 23.0624C10.7713 23.3256 10.6406 23.6827 10.6406 24.0548C10.6406 24.4271 10.7713 24.784 11.0038 25.0472C11.2363 25.3104 11.5517 25.4583 11.8805 25.4583ZM27.0999 18.6445C29.4433 15.9921 30.9683 11.6274 31.8921 8.04167C32.8157 11.6485 34.3718 15.9921 36.6841 18.6445C38.9965 21.2971 42.8834 23.0233 46.0513 24.0688C42.8586 25.1144 39.0274 26.8757 36.6841 29.4931C34.3407 32.1105 32.8157 36.4752 31.8921 40.082C30.9683 36.4752 29.4122 32.1316 27.0999 29.4791C24.7875 26.8265 20.9006 25.1004 17.7327 24.0548C20.9254 23.0092 24.7566 21.2831 27.0999 18.6305V18.6445Z" fill="#5baccf"/>
    <path d="M43.0518 12.8282C43.38 12.8266 43.6944 12.6777 43.9259 12.4142L46.4056 9.60733C46.6087 9.33885 46.7148 8.99349 46.7028 8.64029C46.6907 8.28708 46.5613 7.95202 46.3405 7.70208C46.1197 7.45213 45.8237 7.30572 45.5117 7.29206C45.1996 7.27842 44.8945 7.39857 44.6573 7.62849L42.1776 10.4354C42.0052 10.6316 41.888 10.8811 41.8405 11.1526C41.7932 11.4241 41.8177 11.7053 41.9111 11.961C42.0045 12.2168 42.1627 12.4355 42.3656 12.5898C42.5686 12.7441 42.8072 12.827 43.0518 12.8282ZM42.1776 35.6971C41.9467 35.96 41.8171 36.3158 41.8171 36.6866C41.8171 37.0574 41.9467 37.413 42.1776 37.6759L44.6573 40.4828C44.8945 40.7127 45.1996 40.8328 45.5117 40.8192C45.8237 40.8056 46.1197 40.6592 46.3405 40.4092C46.5613 40.1592 46.6907 39.8242 46.7028 39.471C46.7148 39.1178 46.6087 38.7724 46.4056 38.504L43.9259 35.6971C43.6935 35.4358 43.3792 35.289 43.0518 35.289C42.7242 35.289 42.4099 35.4358 42.1776 35.6971ZM19.8599 12.4142C20.0971 12.6441 20.4023 12.7642 20.7143 12.7506C21.0263 12.737 21.3223 12.5905 21.5432 12.3406C21.764 12.0906 21.8934 11.7556 21.9054 11.4024C21.9175 11.0492 21.8113 10.7038 21.6081 10.4354L19.1284 7.62849C18.8912 7.39857 18.5861 7.27842 18.2741 7.29206C17.962 7.30572 17.666 7.45213 17.4452 7.70208C17.2244 7.95202 17.0951 8.28708 17.0829 8.64029C17.0709 8.99349 17.1771 9.33885 17.3801 9.60733L19.8599 12.4142Z" fill="#5baccf"/>
  </g>
  <defs>
    <clipPath id="clip0_19017_4522">
      <rect width="56" height="77.3333" fill="white"/>
    </clipPath>
  </defs>
</svg>